<svg id="Layer_1" xmlns="http://www.w3.org/2000/svg" width="400" height="111" viewBox="-105 341 400 111"><style>.st0{fill-opacity:.5}.st0,.st1{fill:#FFF}</style><path class="st0" d="M246 452c-7.7 0-15.2-1.8-21.9-5.1-2.7-1.3-5.2-2.9-7.6-4.7-1.6 1.7-3.5 3.2-5.6 4.4-2.5 1.5-5.3 2.7-8.4 3.6-3.6 1-7.4 1.5-11.6 1.5-7.4 0-14.3-1.4-20.6-4.2-.6-.3-1.3-.6-1.9-.9v3.8h-25.2c-2.8 0-5.1-.2-7.3-.6-2.6-.5-4.9-1.2-7.1-2.2v2.8h-23.5c-3.1 0-5.9-.3-8.5-.9-3.3-.7-6.4-1.9-9-3.5-1.8-1.1-3.5-2.4-5-3.9-3.6 2.8-7.6 5-12 6.7-5.9 2.2-12.5 3.3-19.5 3.3-9.4 0-18.4-2.6-26.2-7.5-2.7-1.7-5.2-3.7-7.4-5.9v11.7H-4.5c-3.3 0-6.3-.3-9.1-1.1-3.5-.9-6.6-2.2-9.4-4.1-1.3-.9-2.5-1.9-3.6-2.9-1 .7-2.1 1.4-3.1 2.1-3.4 2-7.1 3.6-11 4.8-4.9 1.4-10 2.1-15.3 2.1h-8.2c-4.4 0-8.4-.4-12.2-1.2-4.3-.9-8.2-2.4-11.6-4.4-2.6-1.5-4.9-3.2-6.9-5.2-2.8-2.8-5.2-6.1-6.8-9.7-2.2-4.7-3.3-9.9-3.3-15.4v-66l11.3-3.8c1.4-.5 3-.9 4.9-1.4 1.6-.4 3.4-.8 5.2-1.2 3.7-.7 7.5-1.3 11-1.7 2.8-.2 5.1-.3 7.3-.3h9.1c6 0 11.8.9 17.1 2.6 5.9 1.9 11 4.8 15.3 8.6 2.7 2.4 5 5.2 6.8 8.3 1.5-.8 3-1.6 4.6-2.2 4.7-1.9 9.9-2.9 15.3-2.9 3.3 0 6.3.3 9.2.9 3.2.7 6.1 1.7 8.7 3.1 1.9 1 3.7 2.3 5.3 3.7 2.4-1.5 5-2.8 7.6-3.8 5.9-2.3 12.3-3.5 19-3.5 9.2 0 18.1 2.6 25.8 7.5 2.9 1.9 5.6 4 8 6.5 1.6-1.7 3.3-3.3 5.2-4.7 3.5-2.7 7.6-4.8 12-6.4 5.6-2 11.7-3 18.3-3 6 0 11.3.7 16.2 2.1 5.3 1.5 10.1 3.8 14.2 7 1.8 1.4 3.5 2.9 5 4.6.8-.8 1.6-1.5 2.4-2.2 3.7-3.1 7.9-5.7 12.6-7.5 6.2-2.5 13-3.8 20.2-3.8 4.7 0 9.2.8 13.4 2.5 4.3 1.7 8.1 4.1 11.3 7.1 1.3-1 2.7-1.9 4.2-2.8 7.6-4.5 16.5-6.8 25.9-6.8 9.2 0 18.2 2.6 25.9 7.5 7.9 5 14.1 12.2 17.8 20.8 2.6 6 3.9 12.5 3.9 19.2 0 7.7-1.4 14.8-4 21.2-2.8 6.8-7.3 12.7-12.8 17.2-3.7 3-8 5.4-12.6 7.1-6 2-12.6 3.1-19.6 3.1zM7.8 401.3l4.4 7.6 5 12.3c2.9 6.1 7.5 11.3 13.2 14.9 6.1 3.9 13.3 6 20.9 6v5-5c5.9 0 11.3-.9 16.1-2.7 3.7-1.4 7-3.2 9.9-5.6.9-.7 1.8-1.5 2.7-2.5l5.8-5.7s.7 4.5 2 6.6 1.1 1.7 1.8 2.4c1 1.1 2.1 2 3.4 2.8 1.8 1.1 3.7 1.8 6 2.3 1.9.4 4.1.6 6.4.6H119l-.1-29.4v-11.7c0-3.9 6.6-3.5 6.6.2 0 1 .1 28.8.1 28.8.4 6.7 6.6 9.8 6.9 10 1.5.8 3.3 1.4 5.3 1.8 1.7.3 3.4.4 5.6.4h15.3v-13.1l8 6.4c2.4 1.9 5 3.5 7.7 4.7 5 2.2 10.6 3.4 16.6 3.4 3.3 0 6.3-.4 9-1.1 2.1-.6 4.1-1.4 5.8-2.5 1.4-.8 2.6-1.8 3.7-2.9.8-.8 1.6-1.8 2.2-2.8l3.3-5.1 4.4 4.2c2.7 2.6 5.8 4.8 9.2 6.5 5.3 2.7 11.4 4.1 17.5 4.1 5.9 0 11.3-.9 16.1-2.7 3.7-1.4 7-3.2 9.9-5.6 4.3-3.4 7.7-8 9.9-13.3 2.2-5.2 3.3-11 3.3-17.4 0-5.4-1-10.5-3.1-15.3-2.9-6.7-7.8-12.4-14-16.4-6.1-3.9-13.2-5.9-20.5-5.9-7.6 0-14.8 1.9-20.9 5.5-2.3 1.3-4.4 2.9-6.3 4.7l-4.1 3.8-3.3-4.5c-.7-.9-1.5-1.8-2.3-2.6-2.3-2.2-5-3.9-8.1-5.1-3.1-1.2-6.4-1.8-9.8-1.8-6 0-11.5 1-16.5 3-3.6 1.5-7 3.5-9.9 5.9-1.9 1.6-3.6 3.4-5.2 5.4l-4.3 5.5-3.8-5.9c-.4-.6-.8-1.2-1.1-1.6-1.5-2.1-3.4-3.9-5.4-5.5-3.1-2.4-6.7-4.1-10.9-5.3-4.1-1.1-8.5-1.7-13.6-1.7-5.4 0-10.5.8-15 2.4-3.4 1.2-6.6 2.9-9.3 4.9s-5 4.5-6.9 7.3l-3.9 5.7-4.2-5.5c-2.7-3.5-5.9-6.5-9.6-8.8-6.1-3.9-13.2-5.9-20.5-5.9-5.5 0-10.7.9-15.4 2.8-3.2 1.2-6.2 2.9-8.9 5l-3.9 2.9-3-3.9c-.6-.8-1.2-1.4-1.9-2.1-1-.9-2.2-1.7-3.4-2.4-1.8-1-3.8-1.7-6.1-2.1-2.2-.5-4.5-.7-7.1-.7-4.2 0-8.1.7-11.6 2.2-2.6 1-5 2.5-7.1 4.2l-5.4 4.5-2.4-6.6c-.4-1-.8-2-1.3-2.9-1.4-2.6-3.3-5-5.6-7.1-3.2-2.9-7.1-5.1-11.7-6.6-4.3-1.4-9-2.1-14-2.1h-9.1c-1.8 0-3.8.1-6.3.4-3.2.3-6.7.9-10.1 1.5-1.7.3-3.3.7-4.7 1.1-1.6.4-2.9.8-4.1 1.2l-4.5 1.5v58.8c0 4.1.8 7.9 2.3 11.2 1.1 2.5 2.8 4.8 4.7 6.7 1.4 1.4 3.1 2.6 4.9 3.7 2.6 1.5 5.5 2.6 8.8 3.3 3.1.7 6.4 1 10.1 1h8.2c4.4 0 8.6-.6 12.6-1.7 3.1-.9 6-2.2 8.7-3.7 2-1.2 3.8-2.6 5.4-4.1l4.2-4 3.3 4.8c.3.5.7.9 1 1.3 1 1.2 2.2 2.2 3.5 3.1 1.8 1.2 3.9 2.1 6.2 2.7 2.1.5 4.3.8 6.8.8H8.2v-38.9h-.4zm0 0s.1-5.2 1.6-6c3.2-1.7 6.4.6 6.4.6-5.2 10.9 1.5 25.3 1.5 25.3"/><path class="st1" d="M-27.2 411.3c0 4.1-.8 7.6-2.4 10.6s-3.8 5.5-6.5 7.5-5.8 3.5-9.2 4.5-7 1.5-10.7 1.5h-8.2c-7.6 0-13.6-1.6-17.9-4.8-4.3-3.2-6.4-8-6.4-14.5V362c1.4-.4 3.1-.9 5.1-1.4s4.1-.9 6.2-1.3c2.1-.4 4.2-.7 6.3-.9 2.1-.2 3.9-.3 5.6-.3h9.1c3.8 0 7.3.5 10.7 1.4s6.3 2.3 8.8 4.1c2.5 1.8 4.5 4.1 5.9 6.7 1.5 2.7 2.2 5.7 2.2 9.1 0 1.7-.3 3.5-1 5.1-.7 1.7-1.6 3.2-2.8 4.6-1.2 1.4-2.5 2.6-4 3.6s-3 1.7-4.5 2.1c1.8.6 3.5 1.4 5.2 2.6 1.6 1.1 3.1 2.4 4.4 3.9s2.3 3.1 3 4.8c.7 1.9 1.1 3.6 1.1 5.2zm-21.8-30c0-2.3-.8-4-2.3-5-1.6-1-3.9-1.5-6.9-1.5h-4.6c-.6 0-1.4 0-2.4.1-1.1.1-1.9.2-2.7.3v13.4h9.1c3.5 0 6-.6 7.5-1.9 1.5-1.2 2.3-3 2.3-5.4zm1.1 29.4c0-3-.7-5.1-2.2-6.2s-4.2-1.7-8.1-1.7h-9.6v11.6c0 2.2 1.2 3.2 3.7 3.2h6.6c3.5 0 5.9-.6 7.4-1.9 1.5-1.2 2.2-2.9 2.2-5zM17.4 390c-1.3-.5-2.5-.8-3.6-1-1.1-.1-2.3-.2-3.7-.2-2.5 0-4.7.7-6.4 2.2-1.7 1.5-2.6 4-2.6 7.6v35.9h-5.7c-4.5 0-8-1.1-10.6-3.3-2.5-2.2-3.8-5.8-3.8-10.8v-26.1c0-3.1.5-5.9 1.5-8.5 1-2.6 2.4-4.9 4.3-6.9s4.2-3.5 6.9-4.6c2.7-1.1 5.7-1.7 9.1-1.7 5.2 0 9.1.9 11.5 2.8s3.6 4.2 3.6 7v7.6h-.5zm2.8 15.8c0-4.9.8-9.4 2.4-13.5 1.6-4.1 3.9-7.5 6.7-10.4 2.9-2.9 6.3-5.1 10.3-6.7 4-1.6 8.3-2.3 13.1-2.3 4.1 0 8 .7 11.7 2.2s7 3.6 9.9 6.3c2.9 2.7 5.2 6 6.9 9.8 1.7 3.8 2.6 8 2.6 12.6 0 4.9-.7 9.4-2.2 13.4s-3.6 7.3-6.4 10.1c-2.8 2.8-6.2 5-10.2 6.5s-8.6 2.3-13.8 2.3c-4.3 0-8.3-.7-12.1-2.2s-7.1-3.6-9.9-6.3c-2.8-2.7-5-5.9-6.6-9.6-1.6-3.7-2.4-7.7-2.4-12.2zm43.1 0c0-5.4-1.1-9.5-3.2-12.3-2.1-2.8-5-4.1-8.7-4.1-1.5 0-2.8.4-4.1 1.1-1.3.7-2.4 1.7-3.4 2.9s-1.8 2.7-2.4 4.5c-.6 1.7-.9 3.6-.9 5.6 0 5.8 1.1 10 3.2 12.6 2.1 2.6 5 3.9 8.7 3.9 3.3 0 5.9-1.3 7.8-4 2-2.7 3-6.1 3-10.2zm79.9 28.7c-4.6 0-7.7-.9-9.4-2.7-1.7-1.8-2.6-5-2.6-9.5v-21c0-4.1-.7-7-2.2-8.9s-4-2.8-7.5-2.8c-3 0-5.4 1-6.9 2.9-1.6 1.9-2.3 4.7-2.3 8.5v33.6h-7c-4.4 0-7.8-.9-10.2-2.8-2.4-1.9-3.5-5-3.5-9.4v-21c0-4.3.7-8.2 2.1-11.7 1.4-3.5 3.4-6.5 6-9s5.8-4.4 9.6-5.7 8.1-2 12.8-2c5.3 0 9.8.7 13.6 2s6.9 3.3 9.3 5.8c2.4 2.5 4.2 5.6 5.3 9.2 1.1 3.6 1.7 7.6 1.7 12v32.7h-8.8v-.2zm66.3-40.3c-.9-1-2.7-2-5.2-2.8-2.5-.9-5.2-1.3-8.1-1.3-5.1 0-9 1.2-11.7 3.6-2.7 2.4-4.1 5.7-4.1 9.9 0 5.2 1.3 9 4 11.4 2.6 2.4 6.3 3.7 10.8 3.7 3.3 0 6-.3 8.3-.9 2.3-.6 4.3-1.4 6.2-2.5h.2v6.2c0 2-.5 3.8-1.5 5.6-1 1.8-2.3 3.3-4 4.6-1.7 1.3-3.7 2.3-6 3.1-2.4.8-4.9 1.1-7.6 1.1-4.6 0-8.8-.7-12.6-2.2-3.8-1.5-7.1-3.6-9.9-6.3-2.8-2.7-4.9-5.9-6.4-9.8-1.5-3.8-2.3-8.1-2.3-12.8 0-4.3.7-8.4 2.2-12.2 1.5-3.9 3.6-7.2 6.4-10.1 2.8-2.9 6.2-5.2 10.3-6.9 4.1-1.7 8.8-2.6 14.1-2.6 2.4 0 4.6.4 6.7 1.1 2.1.7 3.9 1.7 5.5 3s2.8 2.7 3.8 4.4c.9 1.7 1.4 3.5 1.4 5.5v7.3l-.5-.1zm5.4 11.6c0-4.9.8-9.4 2.4-13.5 1.6-4.1 3.9-7.5 6.7-10.4 2.9-2.9 6.3-5.1 10.3-6.7 4-1.6 8.3-2.3 13.1-2.3 4.1 0 8 .7 11.7 2.2s7 3.6 9.9 6.3c2.9 2.7 5.2 6 6.9 9.8 1.7 3.8 2.6 8 2.6 12.6 0 4.9-.7 9.4-2.2 13.4s-3.6 7.3-6.4 10.1c-2.8 2.8-6.2 5-10.2 6.5s-8.6 2.3-13.8 2.3c-4.3 0-8.3-.7-12.1-2.2-3.8-1.5-7.1-3.6-9.9-6.3-2.8-2.7-5-5.9-6.6-9.6-1.5-3.7-2.4-7.7-2.4-12.2zm43.1 0c0-5.4-1.1-9.5-3.2-12.3s-5-4.1-8.7-4.1c-1.5 0-2.8.4-4.1 1.1-1.3.7-2.4 1.7-3.4 2.9s-1.8 2.7-2.4 4.5c-.6 1.7-.9 3.6-.9 5.6 0 5.8 1.1 10 3.2 12.6s5 3.9 8.7 3.9c3.3 0 5.9-1.3 7.8-4 2.1-2.7 3-6.1 3-10.2z"/></svg>